<mxfile host="app.diagrams.net" modified="2022-02-28T12:03:55.486Z" agent="5.0 (Windows NT 10.0; Win64; x64) AppleWebKit/537.36 (KHTML, like Gecko) Chrome/96.0.4664.174 YaBrowser/22.1.3.848 Yowser/2.5 Safari/537.36" etag="sZaXkDmEATVquKUdBUJk" version="16.6.4" type="github">
  <diagram id="ewUVDnR6odoHEjvroTte" name="Page-1">
    <mxGraphModel dx="1483" dy="776" grid="1" gridSize="10" guides="1" tooltips="1" connect="1" arrows="1" fold="1" page="1" pageScale="1" pageWidth="827" pageHeight="1169" math="0" shadow="0">
      <root>
        <mxCell id="0" />
        <mxCell id="1" parent="0" />
        <mxCell id="1KVrCh8t2x983QBbP4De-7" value="" style="edgeStyle=orthogonalEdgeStyle;rounded=0;orthogonalLoop=1;jettySize=auto;html=1;" edge="1" parent="1" source="1KVrCh8t2x983QBbP4De-1" target="1KVrCh8t2x983QBbP4De-3">
          <mxGeometry relative="1" as="geometry" />
        </mxCell>
        <mxCell id="1KVrCh8t2x983QBbP4De-1" value="&lt;div&gt;Загрузка изображений для&amp;nbsp;&lt;/div&gt;&lt;div&gt;модели расспознавания лиц&lt;/div&gt;" style="shape=parallelogram;perimeter=parallelogramPerimeter;whiteSpace=wrap;html=1;fixedSize=1;" vertex="1" parent="1">
          <mxGeometry x="70" y="120" width="220" height="60" as="geometry" />
        </mxCell>
        <mxCell id="1KVrCh8t2x983QBbP4De-10" value="" style="edgeStyle=orthogonalEdgeStyle;rounded=0;orthogonalLoop=1;jettySize=auto;html=1;" edge="1" parent="1" source="1KVrCh8t2x983QBbP4De-3" target="1KVrCh8t2x983QBbP4De-9">
          <mxGeometry relative="1" as="geometry" />
        </mxCell>
        <mxCell id="1KVrCh8t2x983QBbP4De-21" value="" style="edgeStyle=orthogonalEdgeStyle;rounded=0;orthogonalLoop=1;jettySize=auto;html=1;" edge="1" parent="1" source="1KVrCh8t2x983QBbP4De-3" target="1KVrCh8t2x983QBbP4De-11">
          <mxGeometry relative="1" as="geometry" />
        </mxCell>
        <mxCell id="1KVrCh8t2x983QBbP4De-3" value="&lt;div&gt;&amp;nbsp;Инициализация моделей для расспознавания&amp;nbsp;&lt;/div&gt;&lt;div&gt;&amp;nbsp;лиц и занесения их в динамическую память&lt;/div&gt;" style="rounded=0;whiteSpace=wrap;html=1;" vertex="1" parent="1">
          <mxGeometry x="85" y="210" width="190" height="70" as="geometry" />
        </mxCell>
        <mxCell id="1KVrCh8t2x983QBbP4De-6" value="" style="edgeStyle=orthogonalEdgeStyle;rounded=0;orthogonalLoop=1;jettySize=auto;html=1;" edge="1" parent="1" source="1KVrCh8t2x983QBbP4De-5" target="1KVrCh8t2x983QBbP4De-1">
          <mxGeometry relative="1" as="geometry" />
        </mxCell>
        <mxCell id="1KVrCh8t2x983QBbP4De-5" value="Старт программы" style="html=1;dashed=0;whitespace=wrap;shape=mxgraph.dfd.start" vertex="1" parent="1">
          <mxGeometry x="120" y="40" width="120" height="40" as="geometry" />
        </mxCell>
        <mxCell id="1KVrCh8t2x983QBbP4De-9" value="&lt;div&gt;&amp;nbsp;Вывод уведомления&lt;/div&gt;&lt;div&gt;&amp;nbsp; &amp;nbsp; &amp;nbsp; &amp;nbsp; &amp;nbsp;в&lt;span&gt;&amp;nbsp;консоль об инициализации моделей&amp;nbsp;&lt;/span&gt;&lt;span&gt;для&amp;nbsp;&lt;/span&gt;&lt;/div&gt;&lt;div&gt;&lt;span&gt;распознавания&lt;/span&gt;&lt;/div&gt;" style="shape=display;whiteSpace=wrap;html=1;" vertex="1" parent="1">
          <mxGeometry x="370" y="206.25" width="290" height="77.5" as="geometry" />
        </mxCell>
        <mxCell id="1KVrCh8t2x983QBbP4De-28" value="" style="edgeStyle=orthogonalEdgeStyle;rounded=0;orthogonalLoop=1;jettySize=auto;html=1;" edge="1" parent="1" source="1KVrCh8t2x983QBbP4De-11">
          <mxGeometry relative="1" as="geometry">
            <mxPoint x="180.0000000000001" y="440" as="targetPoint" />
          </mxGeometry>
        </mxCell>
        <mxCell id="1KVrCh8t2x983QBbP4De-32" value="" style="edgeStyle=orthogonalEdgeStyle;rounded=0;orthogonalLoop=1;jettySize=auto;html=1;" edge="1" parent="1" source="1KVrCh8t2x983QBbP4De-11" target="1KVrCh8t2x983QBbP4De-31">
          <mxGeometry relative="1" as="geometry" />
        </mxCell>
        <mxCell id="1KVrCh8t2x983QBbP4De-11" value="Django. Запуск сервера." style="shape=process;whiteSpace=wrap;html=1;backgroundOutline=1;" vertex="1" parent="1">
          <mxGeometry x="100" y="330" width="160" height="60" as="geometry" />
        </mxCell>
        <mxCell id="1KVrCh8t2x983QBbP4De-30" value="Переход в административную панель" style="shape=process;whiteSpace=wrap;html=1;backgroundOutline=1;" vertex="1" parent="1">
          <mxGeometry x="95" y="440" width="170" height="60" as="geometry" />
        </mxCell>
        <mxCell id="1KVrCh8t2x983QBbP4De-31" value="Переход в режим наблюдения камеры" style="shape=process;whiteSpace=wrap;html=1;backgroundOutline=1;" vertex="1" parent="1">
          <mxGeometry x="360" y="330" width="140" height="60" as="geometry" />
        </mxCell>
        <mxCell id="1KVrCh8t2x983QBbP4De-35" value="" style="endArrow=none;html=1;rounded=0;exitX=1;exitY=0.5;exitDx=0;exitDy=0;" edge="1" parent="1" source="1KVrCh8t2x983QBbP4De-30">
          <mxGeometry width="50" height="50" relative="1" as="geometry">
            <mxPoint x="280" y="460" as="sourcePoint" />
            <mxPoint x="310" y="360" as="targetPoint" />
            <Array as="points">
              <mxPoint x="310" y="470" />
            </Array>
          </mxGeometry>
        </mxCell>
        <mxCell id="1KVrCh8t2x983QBbP4De-38" value="" style="endArrow=none;html=1;rounded=0;exitX=0.5;exitY=1;exitDx=0;exitDy=0;" edge="1" parent="1" source="1KVrCh8t2x983QBbP4De-31">
          <mxGeometry width="50" height="50" relative="1" as="geometry">
            <mxPoint x="280" y="460" as="sourcePoint" />
            <mxPoint x="180" y="410" as="targetPoint" />
            <Array as="points">
              <mxPoint x="430" y="550" />
              <mxPoint x="40" y="550" />
              <mxPoint x="40" y="410" />
            </Array>
          </mxGeometry>
        </mxCell>
      </root>
    </mxGraphModel>
  </diagram>
</mxfile>
